<svg width="345" height="345" fill="none" version="1.1" viewBox="0 0 345 345" xmlns="http://www.w3.org/2000/svg">
 <g transform="translate(-17.003 -4.131)">
  <path d="m97.641 107.04c4.6204 0.44 13.42 1.54 22.44 1.54h107.8c5.06 0 9.68-0.22 13.42-1.32l14.08 8.8c-0.88 2.2-1.98 4.62-2.64 8.14-5.06 27.5-12.98 62.48-25.96 82.28-20.68 31.68-48.18 53.24-91.52 67.76l-14.3-15.18c38.06-9.02 68.86-29.26 88.88-58.74 12.1-18.04 19.58-49.72 22.88-74.8h-112.42c-7.04 0-14.74 0.22-22.66 0.88zm132.22 74.8h-106.48c-7.48 0-13.42 0.44-20.02 0.88v-18.04c5.94 0.44 12.54 0.88 19.58 0.88h108.46z" fill="#f00"/>
  <path d="m106.43 91v-9.8198h-0.141l-2.98 2.0918v-2.0586l3.129-2.1914h2.133v11.978z" fill="#000"/>
  <path d="m102.28 141.52c0-1.118 0.388-2.031 1.162-2.739 0.781-0.709 1.785-1.063 3.013-1.063 1.185 0 2.159 0.324 2.922 0.971 0.77 0.648 1.154 1.472 1.154 2.474 0 0.642-0.194 1.278-0.581 1.909-0.387 0.625-1.09 1.442-2.108 2.449l-2.507 2.515v0.141h5.379v1.818h-8.318v-1.486l3.993-4.084c0.819-0.83 1.364-1.452 1.635-1.868 0.272-0.42 0.407-0.841 0.407-1.261 0-0.526-0.194-0.96-0.581-1.303-0.382-0.344-0.869-0.515-1.461-0.515-0.625 0-1.132 0.188-1.519 0.564-0.387 0.377-0.581 0.869-0.581 1.478v0.033h-2.009z" fill="#000"/>
  <g clip-rule="evenodd" fill="#000" fill-rule="evenodd">
   <path d="m153.34 88.929 6.364 6.364c0.391 0.3905 0.391 1.0237 0 1.4142l-6.364 6.3637c-0.39 0.391-1.024 0.391-1.414 0-0.391-0.39-0.391-1.023 0-1.414l4.657-4.6568h-53.586v-2h53.586l-4.657-4.6569c-0.391-0.3905-0.391-1.0237 0-1.4142 0.39-0.3905 1.024-0.3905 1.414 0z"/>
   <path d="m153.34 147.93 6.364 6.364c0.391 0.391 0.391 1.024 0 1.414l-6.364 6.364c-0.39 0.391-1.024 0.391-1.414 0-0.391-0.39-0.391-1.023 0-1.414l4.657-4.657h-53.586v-2h53.586l-4.657-4.657c-0.391-0.39-0.391-1.023 0-1.414 0.39-0.39 1.024-0.39 1.414 0z"/>
   <path d="m249.14 192.85c8.971-19.71 16.461-52.9 18.862-75.952l1.989 0.208c-2.417 23.205-9.961 56.701-19.079 76.678l6.267-2.161c0.522-0.18 1.091 0.097 1.271 0.619s-0.097 1.092-0.619 1.272l-8.508 2.933c-0.523 0.181-1.092-0.097-1.272-0.619l-2.934-8.508c-0.18-0.522 0.098-1.092 0.62-1.272s1.091 0.098 1.271 0.62z"/>
  </g>
  <g fill="#000" aria-label="3">
   <path d="m275.8 121.64h1.2188q0.71094 0 1.1764-0.24544 0.47396-0.24544 0.70248-0.67708 0.22851-0.43164 0.22851-0.99024 0-0.58398-0.21159-0.99869-0.20312-0.42318-0.6263-0.65169-0.41471-0.22852-1.0579-0.22852-0.54167 0-0.98177 0.22005-0.43164 0.21159-0.68554 0.60938-0.25391 0.38932-0.25391 0.93098h-2.0482q0-0.98176 0.51627-1.7435 0.51628-0.76172 1.405-1.1934 0.89713-0.4401 2.0143-0.4401 1.1934 0 2.082 0.39778 0.89714 0.38933 1.3965 1.168 0.49934 0.77864 0.49934 1.9297 0 0.52474-0.24544 1.0664-0.24544 0.54166-0.72786 0.99023-0.48242 0.4401-1.2018 0.7194-0.7194 0.27083-1.6673 0.27083h-1.5319zm0 1.5911v-1.1172h1.5319q1.0833 0 1.845 0.2539 0.77018 0.25391 1.2526 0.70248 0.48242 0.4401 0.70248 1.0072 0.22851 0.56705 0.22851 1.2018 0 0.86328-0.31315 1.5404-0.30469 0.66862-0.87174 1.1341-0.56706 0.46549-1.3288 0.70247-0.75325 0.23698-1.6419 0.23698-0.79557 0-1.5234-0.22005-0.72787-0.22005-1.3034-0.65169-0.57552-0.44011-0.91406-1.0918-0.33008-0.66015-0.33008-1.5234h2.0397q0 0.55013 0.25391 0.9733 0.26237 0.41472 0.72786 0.6517 0.47396 0.23697 1.0833 0.23697 0.64323 0 1.1087-0.22851 0.46549-0.22852 0.71093-0.67708 0.25391-0.44857 0.25391-1.0833 0-0.7194-0.2793-1.168-0.27929-0.44857-0.79557-0.66016-0.51627-0.22005-1.2188-0.22005z"/>
  </g>
 </g>
</svg>
